# xmcd
#
# Track frame offsets: 
#        150
#        14375
#        21662
#        39950
#        47062
#        60850
#        72037
#        74597
#        91950
#        104647
#        113540
#        127472
#        140550
#        151630
#
# Disc length: 2086 seconds
#
# Revision: 0
# Processed by: cddbd v1.5.2PL0 Copyright (c) Steve Scherf et al.
# Submitted via: ExactAudioCopyFreeDBPlugin 1.0
#
DISCID=c008240e
DTITLE=竹柴蟹助 - 析の芸術
DYEAR=1978
DGENRE=JPop
TTITLE0=着到の留め析
TTITLE1=着到
TTITLE2=仮名手本忠臣蔵　大序
TTITLE3=仮名手本忠臣蔵　二段目
TTITLE4=仮名手本忠臣蔵　三段目
TTITLE5=仮名手本忠臣蔵　四段目
TTITLE6=砂切り
TTITLE7=仮名手本忠臣蔵　五段目
TTITLE8=仮名手本忠臣蔵　六段目
TTITLE9=仮名手本忠臣蔵　七段目
TTITLE10=仮名手本忠臣蔵　八段目
TTITLE11=仮名手本忠臣蔵　九段目
TTITLE12=仮名手本忠臣蔵　十一段目
TTITLE13=打出し
EXTD=
EXTT0=
EXTT1=
EXTT2=
EXTT3=
EXTT4=
EXTT5=
EXTT6=
EXTT7=
EXTT8=
EXTT9=
EXTT10=
EXTT11=
EXTT12=
EXTT13=
PLAYORDER=
